<?xml version="1.0" encoding="UTF-8" standalone="no"?>
<svg
   xmlns:dc="http://purl.org/dc/elements/1.1/"
   xmlns:cc="http://creativecommons.org/ns#"
   xmlns:rdf="http://www.w3.org/1999/02/22-rdf-syntax-ns#"
   xmlns:svg="http://www.w3.org/2000/svg"
   xmlns="http://www.w3.org/2000/svg"
   viewBox="0 0 2800 1868"
   height="1868"
   width="2800"
   xml:space="preserve"
   id="svg2"
   version="1.1"><metadata
     id="metadata8"><rdf:RDF><cc:Work
         rdf:about=""><dc:format>image/svg+xml</dc:format><dc:type
           rdf:resource="http://purl.org/dc/dcmitype/StillImage" /><dc:title></dc:title></cc:Work></rdf:RDF></metadata><defs
     id="defs6"><clipPath
       id="clipPath18"
       clipPathUnits="userSpaceOnUse"><path
         id="path16"
         d="M 0,1401 H 2100 V 0 H 0 Z" /></clipPath></defs><g
     transform="matrix(1.3333333,0,0,-1.3333333,0,1868)"
     id="g10"><g
   id="g12"><g
     clip-path="url(#clipPath18)"
     id="g14"><g
       transform="translate(507.2314,785.5483)"
       id="g20"><path
         id="path22"
         style="fill:#206633;fill-opacity:1;fill-rule:evenodd;stroke:none"
         d="m 0,0 c 7.725,2.852 19.276,1.081 28.513,8.776 5.471,4.841 12.381,10.15 3.435,16.452 C 4.39,45.014 -16.868,71.396 -43.323,92.202 -60.989,106.005 -93.068,95.082 -93.594,78.159 -94.758,36.315 -43.563,-7.932 0,0 M -0.707,273.079 C 8.066,239.673 3.881,205.844 2.389,172.112 0.966,139.915 6.822,110.326 33.441,89.086 52.699,73.986 65.972,54.44 80.319,35.109 c 12.916,-17.332 26.415,-12.094 30.238,4.398 19.182,83.629 42.738,165.182 -9.325,249.821 -33.591,54.627 -33.606,120.124 4.253,178.777 10.868,16.92 22.079,33.17 32.764,49.957 30.607,48.271 111.561,70.404 162.014,44.467 10.986,-5.609 19.841,-13.251 26.664,-23.66 60.598,-91.103 26.902,-221.386 -71.8,-270.543 -54.441,-26.948 -87.622,-66.804 -93.742,-128.064 -0.257,-3.809 -2.281,-7.926 -1.408,-11.631 2.806,-11.86 -1.714,-29.878 12.955,-33.311 11.451,-2.662 23.905,6.811 31.965,18.062 21.343,29.647 51.445,49.64 79.554,71.418 31.054,24.426 72.893,23.494 95.836,2.191 24.273,-22.373 26.778,-69.188 6.455,-102.29 -15.795,-25.364 -34.261,-48.451 -54.038,-71.016 -20.367,-23.271 -17.211,-29.63 13.484,-34.015 10.677,-1.65 21.878,-3.104 32.624,-2.298 40.417,2.814 68.097,21.313 79.918,62.76 18.572,64.604 74.673,93.964 129.807,112.311 70.979,23.838 147.92,17.077 221.568,4.713 77.973,-13.232 143.475,-100.24 138.391,-176.216 -1.461,-21.469 -11.922,-37.444 -26.303,-51.932 -64.201,-64.845 -143.24,-101.822 -231.338,-121.816 -40.82,-9.43 -80.156,-12.106 -122.599,-6.649 -58.13,7.237 -88.69,40.311 -109.262,88.301 -13.396,31.03 -34.922,46.453 -68.61,46.274 -33.66,-0.281 -67.325,-0.681 -101.149,-0.542 -11.06,0.15 -20.145,-4.621 -23.758,-14.502 -6.365,-16.532 3.767,-31.843 15.332,-38.624 35.307,-21.184 68.721,-46.586 113.112,-49.387 54.154,-3.422 118.607,-61.074 102.982,-125.025 -6.478,-26.926 -20.221,-50.387 -47.091,-56.967 -23.164,-5.516 -47.042,4.853 -66.331,20.07 -36.117,28.686 -63.135,59.803 -59.877,112.381 2.214,35.387 -38.008,60.721 -74.114,55.158 -14.061,-2.189 -27.974,-4.584 -41.476,-7.607 -25.03,-5.813 -32.367,-22.793 -16.488,-43.614 12.272,-16.419 26.215,-33.105 46.341,-40.638 28.26,-10.787 49.717,-29.569 67.335,-52.328 50.247,-65.434 86.282,-136.75 100.658,-219.332 12.016,-68.893 -7.286,-128.895 -49.02,-180.481 -35.77,-43.918 -104.096,-64.461 -163.473,-8.269 -44.516,42.285 -86.236,90.568 -92.653,155.484 -6.817,70.461 -29.629,146.445 11.161,209.869 37.169,57.797 40.138,110.893 17.167,170.574 -4.318,11.366 1.564,29.069 -14.664,32.782 -15.868,3.312 -19.825,-13.745 -28.227,-23.014 -26.63,-29.102 -14.959,-58.865 -1.285,-88.297 13.88,-29.521 8.544,-56.32 -8.821,-81.631 -18.137,-26.498 -53.357,-26.842 -73.218,-1.76 -29.143,36.245 -22.553,80.477 15.61,105.465 5.787,4.082 11.828,7.297 15.043,13.787 3.696,6.754 8.564,14.643 1.125,21.539 -6.101,5.708 -12.307,1.129 -18.837,-2.257 -52.625,-27.44 -77.32,-71.608 -70.723,-129.481 7.367,-65.369 -28.126,-106.365 -72.224,-144.592 -42.472,-36.609 -87.615,-69.158 -143.092,-82.505 -49.403,-11.581 -100.201,-16.385 -150.862,-13.372 -29.091,1.663 -52.124,42.688 -51.888,84.786 0.018,31.8 0.106,63.277 0.666,95.136 0.963,36.819 21.677,65.948 41.401,94.076 12.036,17.702 26.387,34.647 39.837,51.944 50.346,64.908 121.68,86.324 198.852,93.982 24.622,2.324 45.61,-11.031 65.037,-25.896 33.822,-25.928 68.464,-28.213 104.169,-2.6 15.826,11.639 23.239,24.602 14.42,43.178 -11.414,24.096 -13.249,49.437 -10.161,75.663 4.527,35.746 -25.91,58.239 -58.803,44.328 -19.147,-8.431 -38.008,-16.597 -59.095,-19.754 -39.056,-5.466 -57.807,7.14 -66.877,45.786 -4.611,18.795 -3.966,37.846 -1.179,56.321 3.628,23.386 -6.308,39.942 -26.442,43.568 -112.397,20.78 -145.74,112.706 -184.386,200.024 -21.164,46.939 -23.327,96.026 -13.423,145.847 12.38,63.17 56.701,96.06 120.873,86.921 86.232,-12.457 166.78,-40.14 229.618,-103.323 44.992,-45.582 64.635,-103.829 77.807,-164.91" /></g></g></g><text
   transform="scale(1,-1)"
   id="text44"
   y="-352.60654"
   x="1191.0967"
   style="font-style:normal;font-weight:normal;font-size:40.000001px;line-height:1.25;font-family:'Roboto Mono';letter-spacing:0px;word-spacing:0px;fill:#000000;fill-opacity:1;stroke:none;stroke-width:0.75;-inkscape-font-specification:'Roboto Mono, Normal';font-stretch:normal;font-variant:normal;text-anchor:start;text-align:start;writing-mode:lr;font-variant-ligatures:normal;font-variant-caps:normal;font-variant-numeric:normal;font-feature-settings:normal;"
   xml:space="preserve"><tspan
     id="tspan46" /></text>

<text
   transform="scale(1,-1)"
   id="text50"
   y="-375.69385"
   x="1195.2944"
   style="font-style:normal;font-weight:normal;font-size:30.00000075px;line-height:1.25;font-family:'Roboto Mono';letter-spacing:0px;word-spacing:0px;fill:#000000;fill-opacity:1;stroke:none;stroke-width:0.75;-inkscape-font-specification:'Roboto Mono, Normal';font-stretch:normal;font-variant:normal;text-anchor:start;text-align:start;writing-mode:lr;font-variant-ligatures:normal;font-variant-caps:normal;font-variant-numeric:normal;font-feature-settings:normal;"
   xml:space="preserve"><tspan
     id="tspan52" /></text>

<text
   transform="scale(1,-1)"
   id="text56"
   y="-406.12726"
   x="1211.0358"
   style="font-style:normal;font-weight:normal;font-size:30px;line-height:1.25;font-family:'Roboto Mono';letter-spacing:0px;word-spacing:0px;fill:#000000;fill-opacity:1;stroke:none;stroke-width:0.75"
   xml:space="preserve"><tspan
     style="stroke-width:0.75"
     y="-378.83099"
     x="1211.0358"
     id="tspan54" /></text>

<text
   transform="scale(1,-1)"
   id="text60"
   y="-291.89969"
   x="947.44739"
   style="font-style:normal;font-weight:normal;font-size:30px;line-height:1.25;font-family:'Roboto Mono';letter-spacing:0px;word-spacing:0px;fill:#206633;fill-opacity:1;stroke:none;stroke-width:0.75"
   xml:space="preserve"><tspan
     style="font-style:normal;font-variant:normal;font-weight:normal;font-stretch:normal;font-size:144px;font-family:'Roboto Mono';-inkscape-font-specification:'Roboto Mono, Normal';font-variant-ligatures:normal;font-variant-caps:normal;font-variant-numeric:normal;font-feature-settings:normal;text-align:start;writing-mode:lr-tb;text-anchor:start;fill:#206633;fill-opacity:1;stroke-width:0.75"
     y="-291.89969"
     x="947.44739"
     id="tspan58">ARA<tspan
   id="tspan68"
   style="font-style:normal;font-variant:normal;font-weight:bold;font-stretch:normal;font-size:144px;font-family:'Roboto Mono';-inkscape-font-specification:'Roboto Mono, Bold';font-variant-ligatures:normal;font-variant-caps:normal;font-variant-numeric:normal;font-feature-settings:normal;text-align:start;writing-mode:lr-tb;text-anchor:start">DEEP</tspan>OPSIS</tspan></text>

</g></svg>